HIERARCHY
ROOT Hips
{
	OFFSET 0.00000 0.00000 0.00000
	CHANNELS 6 Xposition Yposition Zposition Zrotation Yrotation Xrotation 
	JOINT LHipJoint
	{
		OFFSET 0 0 0
		CHANNELS 3 Zrotation Yrotation Xrotation
		JOINT LeftUpLeg
		{
			OFFSET 1.39187 -1.60231 0.69152
			CHANNELS 3 Zrotation Yrotation Xrotation
			JOINT LeftLeg
			{
				OFFSET 2.43314 -6.68499 0.00000
				CHANNELS 3 Zrotation Yrotation Xrotation
				JOINT LeftFoot
				{
					OFFSET 2.32059 -6.37578 0.00000
					CHANNELS 3 Zrotation Yrotation Xrotation
					JOINT LeftToeBase
					{
						OFFSET 0.23021 -0.63250 1.71305
						CHANNELS 3 Zrotation Yrotation Xrotation
						End Site
						{
							OFFSET 0.00000 -0.00000 0.91647
						}
					}
				}
			}
		}
	}
	JOINT RHipJoint
	{
		OFFSET 0 0 0
		CHANNELS 3 Zrotation Yrotation Xrotation
		JOINT RightUpLeg
		{
			OFFSET -1.19407 -1.60231 0.69152
			CHANNELS 3 Zrotation Yrotation Xrotation
			JOINT RightLeg
			{
				OFFSET -2.44411 -6.71513 0.00000
				CHANNELS 3 Zrotation Yrotation Xrotation
				JOINT RightFoot
				{
					OFFSET -2.31924 -6.37207 0.00000
					CHANNELS 3 Zrotation Yrotation Xrotation
					JOINT RightToeBase
					{
						OFFSET -0.19473 -0.53502 1.87724
						CHANNELS 3 Zrotation Yrotation Xrotation
						End Site
						{
							OFFSET -0.00000 -0.00000 0.98293
						}
					}
				}
			}
		}
	}
	JOINT LowerBack
	{
		OFFSET 0 0 0
		CHANNELS 3 Zrotation Yrotation Xrotation
		JOINT Spine
		{
			OFFSET -0.01120 1.87307 0.09613
			CHANNELS 3 Zrotation Yrotation Xrotation
			JOINT Spine1
			{
				OFFSET 0.01099 1.87818 0.04834
				CHANNELS 3 Zrotation Yrotation Xrotation
				JOINT Neck
				{
					OFFSET 0 0 0
					CHANNELS 3 Zrotation Yrotation Xrotation
					JOINT Neck1
					{
						OFFSET 0.01702 1.40324 -0.12579
						CHANNELS 3 Zrotation Yrotation Xrotation
						JOINT Head
						{
							OFFSET -0.04239 1.38587 -0.01614
							CHANNELS 3 Zrotation Yrotation Xrotation
							End Site
							{
								OFFSET -0.02510 1.47031 -0.00154
							}
						}
					}
				}
				JOINT LeftShoulder
				{
					OFFSET 0 0 0
					CHANNELS 3 Zrotation Yrotation Xrotation
					JOINT LeftArm
					{
						OFFSET 2.95699 0.62343 0.11653
						CHANNELS 3 Zrotation Yrotation Xrotation
						JOINT LeftForeArm
						{
							OFFSET 4.68382 -0.00000 -0.00000
							CHANNELS 3 Zrotation Yrotation Xrotation
							JOINT LeftHand
							{
								OFFSET 2.98124 -0.00000 -0.00000
								CHANNELS 3 Zrotation Yrotation Xrotation
								JOINT LeftFingerBase
								{
									OFFSET 0 0 0
									CHANNELS 3 Zrotation Yrotation Xrotation
									JOINT LeftHandIndex1
									{
										OFFSET 0.70759 -0.00000 0.00000
										CHANNELS 3 Zrotation Yrotation Xrotation
										End Site
										{
											OFFSET 0.57048 -0.00000 0.00000
										}
									}
								}
								JOINT LThumb
								{
									OFFSET 0 0 0
									CHANNELS 3 Zrotation Yrotation Xrotation
									End Site
									{
										OFFSET 0.57919 -0.00000 0.57919
									}
								}
							}
						}
					}
				}
				JOINT RightShoulder
				{
					OFFSET 0 0 0
					CHANNELS 3 Zrotation Yrotation Xrotation
					JOINT RightArm
					{
						OFFSET -2.99027 0.88714 -0.02793
						CHANNELS 3 Zrotation Yrotation Xrotation
						JOINT RightForeArm
						{
							OFFSET -4.75876 -0.00000 -0.00000
							CHANNELS 3 Zrotation Yrotation Xrotation
							JOINT RightHand
							{
								OFFSET -2.93293 -0.00000 -0.00000
								CHANNELS 3 Zrotation Yrotation Xrotation
								JOINT RightFingerBase
								{
									OFFSET 0 0 0
									CHANNELS 3 Zrotation Yrotation Xrotation
									JOINT RightHandIndex1
									{
										OFFSET -0.83175 -0.00000 0.00000
										CHANNELS 3 Zrotation Yrotation Xrotation
										End Site
										{
											OFFSET -0.67058 -0.00000 0.00000
										}
									}
								}
								JOINT RThumb
								{
									OFFSET 0 0 0
									CHANNELS 3 Zrotation Yrotation Xrotation
									End Site
									{
										OFFSET -0.68082 -0.00000 0.68082
									}
								}
							}
						}
					}
				}
			}
		}
	}
}
MOTION
Frames: 15
Frame Time: 0.0540541
0.00 0.00 0.00 0 0 0 0 0 0 -21 0 0 0 0 0 0 0 0 0 0 0 0 0 0 21 0 0 0 0 0 0 0 0 0 0 0 0 0 0 0 0 0 0 0 0 0 0 -16 0 0 21 0 0 11 0 0 0 -8 0 0 0 0 0 0 0 0 0 0 0 0 0 0 0 0 0 0 0 0 8 0 0 0 0 0 0 0 0 0 0 0 0 0 0 0 0 0
0.00 0.00 0.00 -177.5640 3.4596 -166.1040 0.0000 0.0000 0.0000 -16.0262 -18.1699 -16.0214 2.2867 9.4392 27.1792 1.7269 -1.0770 -24.5463 0.0150 0.7895 2.1699 0.0000 0.0000 0.0000 18.7174 12.2624 -16.1960 -1.5388 -7.8309 22.2015 0.2258 -12.3734 -14.2162 -0.6683 5.2278 -14.5593 -5.0938 -1.4984 -13.6193 2.3863 -0.8409 -4.6919 5.2756 -0.1432 2.8034 -7.8551 -0.0696 13.3804 34.3460 8.3759 -12.9280 12.7279 3.4588 -8.4059 -0.0000 -0.0000 0.0000 -94.9319 -0.5140 -2.7192 7.1901 -12.2317 -0.7714 -0.0000 -0.0000 56.9361 -11.9022 22.6898 -4.6481 -7.1250 0.0000 -0.0000 -38.9213 48.5265 -3.9456 -0.0000 -0.0000 0.0000 92.7342 -6.9500 20.5965 -28.9183 39.9480 -10.7082 0.0000 0.0000 0.0082 -0.0415 4.9943 -0.0036 7.1250 -0.0000 -0.0000 19.6506 -24.9165 10.1222
0.00 0.00 0.00 -177.2900 4.6779 -165.9890 0.0000 0.0000 0.0000 -16.1284 -17.4897 -16.1672 2.3345 9.5306 27.4698 1.7606 -0.8314 -24.8603 0.0209 0.9344 2.5682 0.0000 0.0000 0.0000 18.6473 12.3288 -16.6450 -1.6143 -8.0117 22.7497 0.2334 -11.6748 -12.7740 -1.3483 7.3512 -20.7600 -4.3755 -1.5331 -13.6710 2.5267 -0.9730 -4.7799 4.9917 -0.2021 2.7483 -7.5752 1.4691 15.5678 29.6276 9.5079 -15.8759 10.6782 3.5252 -9.7128 -0.0000 -0.0000 0.0000 -95.0806 -0.3661 -6.9705 6.7619 -11.5267 -0.6833 -0.0000 -0.0000 60.7515 -10.7991 22.4880 -4.1728 -7.1250 0.0000 -0.0000 -37.8720 48.5276 -3.8064 -0.0000 -0.0000 0.0000 92.5003 -9.0086 22.7977 -76.8241 59.3338 -48.6149 0.0000 -0.0000 -12.1561 -16.5635 6.7426 -1.9999 7.1250 -0.0000 -0.0000 7.4881 -22.9634 4.0065
0.00 0.00 0.00 -177.2930 5.1415 -166.2700 0.0000 0.0000 0.0000 -16.3845 -17.7674 -15.5366 2.3200 9.5030 27.3818 1.7499 -0.0748 -25.0185 0.0363 1.2293 3.3801 0.0000 0.0000 0.0000 18.5673 12.3566 -16.3991 -1.6283 -8.0448 22.8502 0.2363 -11.6940 -12.7508 -1.3425 7.3358 -20.7141 -4.0673 -1.4485 -13.5599 2.5494 -0.9272 -4.6562 4.8466 -0.1941 2.8088 -8.0767 1.7550 15.5357 28.2949 9.0928 -15.9915 10.2843 3.3202 -9.5517 0.0000 -0.0000 0.0000 -95.4045 -0.7967 -10.5500 6.5453 -11.1684 -0.6406 -0.0000 -0.0000 64.6996 -10.9037 22.0541 -4.1371 -7.1250 0.0000 -0.0000 -37.6836 48.1579 -3.3921 0.0000 -0.0000 0.0000 91.8200 -6.9496 23.2925 -100.6075 59.5705 -69.1731 0.0000 -0.0000 -12.0127 -19.5775 9.1609 -3.2407 7.1250 -0.0000 -0.0000 5.2702 -20.2869 3.1291
0.00 0.00 0.00 -177.5200 5.5044 -166.2510 0.0000 0.0000 0.0000 -16.7724 -18.0538 -15.3360 2.2979 9.4608 27.2476 1.7234 0.4400 -25.0015 0.0375 1.2502 3.4376 0.0000 0.0000 0.0000 18.1728 12.4689 -16.4494 -1.6296 -8.0478 22.8595 0.1889 -11.2381 -12.8468 -1.4070 7.5029 -21.2141 -4.0908 -1.4437 -13.5878 2.5619 -0.9039 -4.7578 4.8772 -0.1719 2.7151 -7.2810 2.3669 15.8690 25.6095 9.1471 -16.2351 9.0300 3.2957 -9.4744 -0.0000 -0.0000 0.0000 -95.7089 -0.6947 -10.6274 6.4748 -11.0518 -0.6271 -0.0000 -0.0000 64.8939 -10.2300 22.3872 -3.9320 -7.1250 0.0000 -0.0000 -37.3309 48.5299 -3.7378 -0.0000 -0.0000 0.0000 90.5883 -3.5693 24.9786 -120.8655 56.0749 -86.3781 0.0000 -0.0000 -9.8305 -26.3541 13.2666 -6.4859 7.1250 -0.0000 -0.0000 0.6838 -15.2389 0.4801
0.00 0.00 0.00 -177.5260 5.9093 -166.2820 0.0000 0.0000 0.0000 -16.9563 -18.9676 -14.8776 2.3039 9.4724 27.2844 1.6675 1.8744 -25.1389 0.0336 1.1834 3.2536 0.0000 0.0000 0.0000 18.0036 13.1048 -16.1412 -1.6039 -7.9872 22.6751 0.2330 -11.5928 -12.6239 -1.4231 7.5437 -21.3365 -4.3599 -1.7237 -14.3396 3.0517 -1.2293 -4.5591 5.5006 -0.3516 3.3819 -5.7243 3.4066 15.6830 20.9977 9.0639 -15.3824 6.9445 3.3356 -8.7483 -0.0000 0.0000 0.0000 -96.6384 -0.8274 -10.2612 6.5184 -11.1239 -0.6354 -0.0000 -0.0000 65.6492 -9.9106 21.9835 -3.7420 -7.1250 0.0000 -0.0000 -36.8091 48.2455 -3.3793 -0.0000 0.0000 0.0000 85.4652 8.6701 28.7486 -139.1843 48.5458 -100.9516 0.0000 -0.0000 -5.5752 -40.7627 21.6533 -17.6451 7.1250 -0.0000 -0.0000 -7.3577 -2.5160 -7.0870
0.00 0.00 0.00 -177.7070 6.5166 -166.4680 0.0000 0.0000 0.0000 -17.6412 -18.4286 -14.7567 2.2895 9.4448 27.1968 1.6402 2.1505 -25.0541 0.0207 0.9298 2.5556 0.0000 0.0000 0.0000 17.6364 12.0564 -16.5753 -1.6237 -8.0338 22.8167 0.1530 -10.5928 -12.4098 -1.8539 8.5550 -24.4129 -4.1235 -2.1854 -14.5392 3.4956 -1.7341 -5.4586 5.7536 -0.4946 2.6123 -4.3904 5.8944 13.8438 17.9390 10.1608 -6.9542 5.3912 4.3798 -5.6142 -0.0000 0.0000 0.0000 -97.5145 0.2111 -10.6012 6.3383 -10.8252 -0.6012 -0.0000 -0.0000 68.5473 -9.6747 22.2748 -3.6973 -7.1250 0.0000 -0.0000 -36.7929 48.5200 -3.6578 -0.0000 0.0000 0.0000 69.0593 39.7253 22.2920 -151.3672 39.6923 -109.4746 0.0000 -0.0000 -5.5609 -47.2176 22.2661 -22.2660 7.1250 -0.0000 -0.0000 -10.9962 0.6019 -11.3208
0.00 0.00 0.00 -177.3960 6.8961 -166.8600 0.0000 0.0000 0.0000 -17.5497 -18.5036 -14.2593 2.3144 9.4924 27.3480 1.6372 2.5506 -25.2053 0.0388 1.2715 3.4962 0.0000 0.0000 0.0000 17.9597 11.9721 -16.0807 -1.5978 -7.9726 22.6308 0.1265 -10.2676 -12.3802 -1.8698 8.5895 -24.5194 -3.5988 -1.8065 -14.5355 3.3705 -1.2668 -5.6304 5.3976 -0.2438 2.3562 -2.0398 6.8203 13.0868 19.4174 11.3564 -0.2940 5.3881 5.4889 -3.5891 0.0000 0.0000 0.0000 -96.7070 0.7355 -0.8940 6.9932 -11.9080 -0.7302 -0.0000 -0.0000 58.8627 -9.6044 22.4367 -3.6952 -7.1250 0.0000 -0.0000 -36.8356 48.6636 -3.8099 0.0000 0.0000 0.0000 41.9111 57.5488 -2.5708 -153.4973 37.7008 -110.8066 0.0000 -0.0000 -13.8461 -35.2702 12.4482 -8.6683 7.1250 -0.0000 -0.0000 -5.4742 -14.8981 -3.9009
0.00 0.00 0.00 -176.7300 7.6701 -166.7780 0.0000 0.0000 0.0000 -16.7281 -19.1586 -14.0781 2.3504 9.5608 27.5657 1.6003 3.8820 -25.5602 0.0320 1.1542 3.1731 0.0000 0.0000 0.0000 18.5923 12.7101 -15.7301 -1.5149 -7.7726 22.0256 0.0349 -9.4995 -12.9139 -1.3374 7.3226 -20.6746 -4.4288 -1.3070 -14.7986 4.0709 -0.5228 -5.2930 6.7630 0.1128 2.7708 -3.6181 5.7752 11.1856 30.1460 11.3725 4.9055 9.2400 6.4643 -2.7437 0.0000 -0.0000 0.0000 -97.0004 1.7295 -0.5784 6.5772 -11.2213 -0.6468 -0.0000 -0.0000 59.4590 -8.9374 22.2296 -3.4049 -7.1250 0.0000 -0.0000 -36.1417 48.5919 -3.6464 0.0000 -0.0000 0.0000 7.6954 60.5728 -35.2080 -155.1235 36.0775 -111.7829 0.0000 -0.0000 -19.4450 -16.4162 4.9928 -1.4688 7.1250 -0.0000 -0.0000 7.6641 -24.7753 3.7792
0.00 0.00 0.00 -176.5290 10.2906 -166.7720 0.0000 0.0000 0.0000 -16.6682 -18.6896 -13.6931 2.3243 9.5112 27.4078 1.5111 5.9346 -26.0243 0.0343 1.1960 3.2882 0.0000 0.0000 0.0000 18.7203 12.1186 -16.1167 -1.4797 -7.6859 21.7641 -0.2334 -6.2254 -13.4837 -1.8533 8.5536 -24.4086 -3.0631 -1.4201 -14.5584 3.9021 -0.8077 -5.7868 5.7348 0.0077 2.1471 2.2808 7.6973 11.3768 13.2065 11.8488 3.1110 3.2645 6.0906 -1.7183 0.0000 -0.0000 0.0000 -97.1336 2.0392 -1.3271 6.5029 -11.0982 -0.6325 -0.0000 -0.0000 60.3516 -5.6038 22.9206 -2.1883 -7.1250 0.0000 -0.0000 -33.7040 49.6702 -4.3218 0.0000 -0.0000 0.0000 -24.9675 61.1096 -60.1577 -152.4438 38.7045 -110.1551 0.0000 -0.0000 -9.0204 -15.0802 20.7848 -5.4618 7.1250 -0.0000 -0.0000 8.5918 -8.7145 7.2753
0.00 0.00 0.00 -177.5610 6.9867 -167.6700 0.0000 0.0000 0.0000 -16.6392 -18.5865 -13.3067 2.2321 9.3337 26.8448 1.5851 3.0708 -25.0563 0.0157 0.8099 2.2260 0.0000 0.0000 0.0000 19.0712 11.1543 -15.2887 -1.4958 -7.7258 21.8842 0.0579 -9.6906 -12.7757 -2.3967 9.6477 -27.8431 -0.9224 0.9064 -14.8683 1.7676 2.0966 -6.0043 2.7191 1.4286 1.8868 -3.0214 0.5328 6.3278 6.9257 0.7681 1.8131 2.7101 0.3957 -0.5635 -0.0000 0.0000 0.0000 -96.1643 2.3586 -5.8530 6.3712 -10.8799 -0.6074 -0.0000 -0.0000 60.7541 -4.2055 20.9218 -1.5041 -7.1250 0.0000 -0.0000 -31.3101 48.1745 -2.7015 -0.0000 0.0000 0.0000 100.3737 31.0006 85.7580 -150.3559 40.5864 -108.8226 0.0000 -0.0000 -10.9354 -35.8140 14.7927 -10.4390 7.1250 -0.0000 -0.0000 -5.5001 -12.0052 -4.2559
0.00 0.00 0.00 -177.9420 6.5215 -167.6270 0.0000 0.0000 0.0000 -16.8809 -17.7199 -14.0184 2.1931 9.2572 26.6033 1.5816 1.5089 -24.3544 0.0242 1.0046 2.7613 0.0000 0.0000 0.0000 18.4874 11.5699 -15.1303 -1.4810 -7.6892 21.7739 0.0418 -9.7089 -13.1022 -1.9728 8.8092 -25.2001 -0.9999 0.5651 -13.3643 1.5396 1.6321 -6.2241 2.3965 1.1965 0.8833 -2.8517 0.9067 6.6917 6.1794 1.2592 2.6769 2.4145 0.6660 -0.3674 -0.0000 -0.0000 0.0000 -96.0351 1.7032 -13.5530 6.1318 -10.4818 -0.5630 -0.0000 -0.0000 69.9927 -4.8394 21.2135 -1.7547 -7.1250 0.0000 -0.0000 -32.0241 48.3343 -2.9143 -0.0000 -0.0000 0.0000 86.9216 10.9368 77.8519 -135.8866 50.3267 -98.4459 0.0000 -0.0000 -21.3813 -27.8236 12.0715 -6.2984 7.1250 -0.0000 -0.0000 -0.4214 -16.3857 -0.2854
0.00 0.00 0.00 -177.9300 5.8794 -167.6400 0.0000 0.0000 0.0000 -16.9970 -17.7923 -14.0451 2.1927 9.2565 26.6009 1.5955 0.8963 -24.2226 0.0454 1.3749 3.7811 0.0000 0.0000 0.0000 18.3184 10.9564 -15.4330 -1.5180 -7.7804 22.0489 -0.0336 -9.2080 -13.7017 -1.6611 8.1214 -23.0834 -0.8764 0.4675 -13.3495 1.4094 1.4930 -6.2373 2.1714 1.1240 0.8751 -2.8559 0.9023 6.9288 6.2048 1.2595 2.6675 2.4235 0.6661 -0.4113 -0.0000 -0.0000 0.0000 -95.7304 1.9035 -11.3179 6.2992 -10.7603 -0.5938 -0.0000 -0.0000 67.2115 -5.1966 21.6530 -1.9220 -7.1250 0.0000 -0.0000 -32.5869 48.6577 -3.2615 -0.0000 -0.0000 0.0000 83.5668 6.3127 74.7927 -120.7434 56.1086 -86.2767 0.0000 -0.0000 -20.7626 -24.0339 8.5500 -3.7931 7.1250 -0.0000 -0.0000 2.0538 -20.6346 1.1990
0.00 0.00 0.00 -177.7730 5.7755 -167.7650 0.0000 0.0000 0.0000 -16.9507 -16.5718 -14.4437 2.2178 9.3058 26.7566 1.6633 -0.5142 -24.2478 0.0381 1.2599 3.4644 0.0000 0.0000 0.0000 18.4300 11.0946 -15.1919 -1.5211 -7.7878 22.0714 0.0177 -9.7336 -13.5655 -1.7092 8.2320 -23.4211 -0.8518 0.4473 -13.2809 1.3988 1.4479 -6.1664 2.1398 1.0936 0.9155 -3.1544 1.3566 6.2701 6.3545 1.8434 3.6676 2.5175 0.9897 -0.0164 0.0000 0.0000 0.0000 -95.3676 2.1295 -9.7145 6.4281 -10.9743 -0.6181 -0.0000 -0.0000 64.9451 -6.3345 21.0771 -2.2861 -7.1250 0.0000 -0.0000 -33.2337 48.0046 -2.7517 0.0000 0.0000 0.0000 83.4122 1.8946 70.6428 -98.8008 59.7053 -67.6142 0.0000 -0.0000 -19.6384 -19.0754 8.3406 -2.8716 7.1250 -0.0000 -0.0000 5.6311 -21.1799 3.2316
0.00 0.00 0.00 -178.2370 4.4549 -167.6480 0.0000 0.0000 0.0000 -17.5331 -16.4982 -15.0748 2.2047 9.2801 26.6755 1.6736 -2.3345 -23.8307 0.0565 1.5336 4.2184 0.0000 0.0000 0.0000 17.6668 9.2699 -16.4188 -1.6083 -7.9976 22.7067 -0.0850 -8.9497 -14.2015 -1.5985 7.9743 -22.6361 -0.4189 0.0348 -13.2265 1.0675 0.8677 -6.2424 1.4692 0.7967 0.8424 -2.8088 1.3754 6.5968 6.1990 1.9008 3.6607 2.3990 1.0235 -0.0708 0.0000 -0.0000 0.0000 -95.2572 1.9040 -12.8890 6.3722 -10.8815 -0.6075 -0.0000 -0.0000 66.6900 -6.6909 20.4396 -2.3460 -7.1250 0.0000 -0.0000 -33.1750 47.4137 -2.2110 0.0000 -0.0000 0.0000 84.3801 -0.2885 65.2658 -56.6341 55.3442 -31.5559 0.0000 -0.0000 -16.5970 -11.3355 4.7718 -0.9554 7.1250 -0.0000 -0.0000 11.4561 -25.1021 5.6215
